<?xml version="1.0" ?><svg xmlns="http://www.w3.org/2000/svg" xmlns:xlink="http://www.w3.org/1999/xlink" version="1.1" viewBox="0 0 94 94" style="enable-background:new 0 0 94 94;" xml:space="preserve"><style type="text/css">
	.st0{display:none;}
	.st1{display:inline;fill:#FEA900;}
	.st2{display:inline;}
	.st3{display:inline;fill:#F9CD6C;}
	.st4{display:inline;fill:none;stroke:#000000;stroke-width:0.25;stroke-miterlimit:10;}
	.st5{stroke:#000000;stroke-linecap:round;stroke-linejoin:round;stroke-miterlimit:10;}
	.st6{opacity:0.2;stroke:#000000;stroke-linecap:round;stroke-linejoin:round;stroke-miterlimit:10;}
	.st7{fill:#F12A00;stroke:#000000;stroke-linecap:round;stroke-linejoin:round;stroke-miterlimit:10;}
	.st8{fill:#FBECCF;stroke:#000000;stroke-linecap:round;stroke-linejoin:round;stroke-miterlimit:10;}
	.st9{opacity:0.2;fill:#F12A00;}
	.st10{fill:#F7C86C;stroke:#000000;stroke-linecap:round;stroke-linejoin:round;stroke-miterlimit:10;}
	.st11{fill:none;stroke:#000000;stroke-linecap:round;stroke-linejoin:round;stroke-miterlimit:10;}
	.st12{display:inline;stroke:#000000;stroke-linecap:round;stroke-linejoin:round;stroke-miterlimit:10;}
	.st13{fill:#FAAC01;stroke:#000000;stroke-linecap:round;stroke-linejoin:round;stroke-miterlimit:10;}
	.st14{fill:#FAAC01;}
	.st15{display:inline;fill:#FAEBCE;stroke:#000000;stroke-width:0.25;stroke-miterlimit:10;}
	.st16{display:inline;fill:none;stroke:#000000;stroke-width:1.0164;stroke-miterlimit:10;}
	.st17{display:inline;fill:#FAEBCE;stroke:#000000;stroke-width:1.0164;stroke-miterlimit:10;}
	.st18{fill:#FEA900;}
	.st19{fill:#F9CD6C;}
	.st20{fill:none;stroke:#000000;stroke-width:1.0164;stroke-miterlimit:10;}
	.st21{fill:#FAEBCE;stroke:#000000;stroke-width:1.0164;stroke-miterlimit:10;}
	.st22{display:inline;fill:#FAEBCE;}
	.st23{fill:#008FF5;stroke:#000000;stroke-linecap:round;stroke-linejoin:round;stroke-miterlimit:10;}
	.st24{fill:#D0E6FB;stroke:#000000;stroke-linecap:round;stroke-linejoin:round;stroke-miterlimit:10;}
	.st25{fill:#FFFFFF;stroke:#000000;stroke-linecap:round;stroke-linejoin:round;stroke-miterlimit:10;}
	.st26{fill:#75D95D;stroke:#000000;stroke-linecap:round;stroke-linejoin:round;stroke-miterlimit:10;}
	.st27{fill:#CAF3BB;}
	.st28{fill:#FFFFFF;}
	.st29{fill:#CAF3BB;stroke:#000000;stroke-linecap:round;stroke-linejoin:round;stroke-miterlimit:10;}
	.st30{display:inline;fill:#D0E6FB;stroke:#000000;stroke-linecap:round;stroke-linejoin:round;stroke-miterlimit:10;}
	.st31{stroke:#FFFFFF;stroke-linecap:round;stroke-linejoin:round;stroke-miterlimit:10;}
	.st32{fill:#B4B2FB;stroke:#000000;stroke-linecap:round;stroke-linejoin:round;stroke-miterlimit:10;}
	.st33{fill:#018BEE;}
	.st34{display:inline;fill:none;stroke:#000000;stroke-linecap:round;stroke-linejoin:round;stroke-miterlimit:10;}
	.st35{fill:#75D95D;}
	.st36{fill:#4949F7;stroke:#000000;stroke-linecap:round;stroke-linejoin:round;stroke-miterlimit:10;}
	.st37{fill:#D0E6FB;}
	.st38{fill:#6FBBF7;stroke:#000000;stroke-linecap:round;stroke-linejoin:round;stroke-miterlimit:10;}
	.st39{fill:#018BEE;stroke:#000000;stroke-linecap:round;stroke-linejoin:round;stroke-miterlimit:10;}
	.st40{fill:#B4B2FB;}
	.st41{fill:#E8E9FE;}
	.st42{fill:#B4B2FB;stroke:#000F24;stroke-miterlimit:10;}
	.st43{stroke:#000000;stroke-miterlimit:10;}
	.st44{fill:#E8E9FE;stroke:#000000;stroke-linecap:round;stroke-linejoin:round;stroke-miterlimit:10;}
	.st45{opacity:0.3;fill:#018BEE;}
	.st46{fill:#6FBBF7;}
	.st47{fill:#FAAC01;stroke:#FFFFFF;stroke-linecap:round;stroke-linejoin:round;stroke-miterlimit:10;}
	.st48{fill:#006A2F;}
	.st49{opacity:0.1;}
	.st50{fill:#FCD4CA;stroke:#000000;stroke-linecap:round;stroke-linejoin:round;stroke-miterlimit:10;}
	.st51{fill:#006A2F;stroke:#000000;stroke-linecap:round;stroke-linejoin:round;stroke-miterlimit:10;}
	.st52{fill:#4949F7;}
	.st53{fill:#F12A00;}
	.st54{fill:#D0E6FB;stroke:#018BEE;stroke-linecap:round;stroke-linejoin:round;stroke-miterlimit:10;}
	.st55{fill:#9CD7FF;}
	.st56{fill:#F7C86C;}
	.st57{opacity:0.3;stroke:#000000;stroke-linecap:round;stroke-linejoin:round;stroke-miterlimit:10;}
	.st58{opacity:0.1;stroke:#000000;stroke-linecap:round;stroke-linejoin:round;stroke-miterlimit:10;}
	.st59{opacity:0.3;fill:#006A2F;}
	.st60{stroke:#000000;stroke-width:1.0825;stroke-linecap:round;stroke-linejoin:round;stroke-miterlimit:10;}
	.st61{fill:#D0E6FB;stroke:#000000;stroke-width:1.0825;stroke-linecap:round;stroke-linejoin:round;stroke-miterlimit:10;}
	.st62{fill:#6FBBF7;stroke:#000000;stroke-width:1.0825;stroke-linecap:round;stroke-linejoin:round;stroke-miterlimit:10;}
	.st63{fill:none;stroke:#000000;stroke-width:1.0825;stroke-linecap:round;stroke-linejoin:round;stroke-miterlimit:10;}
	.st64{fill:#CAF3BB;stroke:#000000;stroke-width:0.7876;stroke-linecap:round;stroke-linejoin:round;stroke-miterlimit:10;}
	.st65{fill:#6FBBF7;stroke:#FFFFFF;stroke-linecap:round;stroke-linejoin:round;stroke-miterlimit:10;}
	.st66{opacity:0.2;}
	.st67{stroke:#E8E9FE;stroke-linecap:round;stroke-linejoin:round;stroke-miterlimit:10;}
	.st68{fill:#FCD4CA;}
	.st69{fill:#FBECCF;}
	.st70{opacity:0.1;fill:#F12A00;}
	.st71{opacity:0.5;stroke:#000000;stroke-linecap:round;stroke-linejoin:round;stroke-miterlimit:10;}
	.st72{fill:#6FBBF7;stroke:#E8E9FE;stroke-linecap:round;stroke-linejoin:round;stroke-miterlimit:10;}
	.st73{opacity:0.5;fill:#D0E6FB;}
	.st74{fill:#70BAF7;}
	.st75{fill:none;stroke:#FFFFFF;stroke-linecap:round;stroke-linejoin:round;stroke-miterlimit:10;}
	.st76{fill:#70BAF7;stroke:#70BAF7;stroke-linecap:round;stroke-linejoin:round;stroke-miterlimit:10;}
	.st77{fill:#018BEE;stroke:#018BEE;stroke-linecap:round;stroke-linejoin:round;stroke-miterlimit:10;}
	.st78{fill:#70BAF7;stroke:#000000;stroke-linecap:round;stroke-linejoin:round;stroke-miterlimit:10;}
	.st79{fill:#F9CD6C;stroke:#000000;stroke-linecap:round;stroke-linejoin:round;stroke-miterlimit:10;}
	.st80{fill:none;}
	.st81{fill:#006A2F;stroke:#006A2F;stroke-miterlimit:10;}
	.st82{fill:#B4DFFC;}
	.st83{fill:#6FBBF7;stroke:#018BEE;stroke-linecap:round;stroke-linejoin:round;stroke-miterlimit:10;}
	.st84{fill:none;stroke:#FBECCF;stroke-linecap:round;stroke-linejoin:round;stroke-miterlimit:10;}
	.st85{fill:none;stroke:#018BEE;stroke-linecap:round;stroke-linejoin:round;stroke-miterlimit:10;}
	.st86{fill:#010101;stroke:#FFFFFF;stroke-linecap:round;stroke-linejoin:round;stroke-miterlimit:10;}
	.st87{fill:#010101;stroke:#000000;stroke-linecap:round;stroke-linejoin:round;stroke-miterlimit:10;}
	.st88{fill:#75D95D;stroke:#FFFFFF;stroke-linecap:round;stroke-linejoin:round;stroke-miterlimit:10;}
	.st89{fill:#94F279;stroke:#000000;stroke-linecap:round;stroke-linejoin:round;stroke-miterlimit:10;}
	.st90{fill:#8C8CF9;}
	.st91{fill:#008FF5;}
	.st92{fill:#8CD8F9;}
	.st93{fill:#FFC043;}
	.st94{fill:#94F279;}
	.st95{fill:#FF3D1D;}
	.st96{fill:#31B1FF;}
	.st97{fill:#FFCF7B;}
	.st98{fill:#B2FF99;}
	.st99{fill:#D7D7FF;}
	.st100{fill:#FF7C6E;}
	.st101{fill:#5CC9FF;}
	.st102{fill:#F12A00;stroke:#FFFFFF;stroke-linecap:round;stroke-linejoin:round;stroke-miterlimit:10;}
	.st103{fill:#F7C86C;stroke:#000000;stroke-width:1.0164;stroke-miterlimit:10;}
</style><g id="Refrences" class="st0"/><g id="Tittle"/><g id="Icons"><g><g><g><path class="st5" d="M61.59,88.57H25c-2.9,0-5.25-2.35-5.25-5.25V10.68c0-2.9,2.35-5.25,5.25-5.25h36.6      c2.9,0,5.25,2.35,5.25,5.25v72.64C66.85,86.22,64.49,88.57,61.59,88.57z"/><path class="st24" d="M67.07,88.57h-36.6c-2.9,0-5.25-2.35-5.25-5.25V10.68c0-2.9,2.35-5.25,5.25-5.25h36.6      c2.9,0,5.25,2.35,5.25,5.25v72.64C72.33,86.22,69.98,88.57,67.07,88.57z"/><path class="st5" d="M29.26,84.25V13.51c0-0.75,0.61-1.35,1.35-1.35h36.33c0.75,0,1.35,0.61,1.35,1.35v70.74      c0,0.75-0.61,1.35-1.35,1.35H30.61C29.86,85.6,29.26,85,29.26,84.25z"/><path class="st38" d="M29.26,84.25V13.51c0-0.75,0.61-1.35,1.35-1.35h33.61c0.75,0,1.35,0.61,1.35,1.35v70.74      c0,0.75-0.61,1.35-1.35,1.35H30.61C29.86,85.6,29.26,85,29.26,84.25z"/><line class="st24" x1="45.64" y1="8.79" x2="51.92" y2="8.79"/><g><path class="st11" d="M29.26,84.25V13.51c0-0.75,0.61-1.35,1.35-1.35h33.61c0.75,0,1.35,0.61,1.35,1.35v70.74       c0,0.75-0.61,1.35-1.35,1.35H30.61C29.86,85.6,29.26,85,29.26,84.25z"/><polygon class="st37" points="29.26,47.64 45.37,12.15 36.69,12.15 29.26,28.12      "/></g><path class="st11" d="M29.26,84.25V13.51c0-0.75,0.61-1.35,1.35-1.35h36.33c0.75,0,1.35,0.61,1.35,1.35v70.74      c0,0.75-0.61,1.35-1.35,1.35H30.61C29.86,85.6,29.26,85,29.26,84.25z"/><path class="st38" d="M29.26,84.25V13.51c0-0.75,0.61-1.35,1.35-1.35h33.61c0.75,0,1.35,0.61,1.35,1.35v70.74      c0,0.75-0.61,1.35-1.35,1.35H30.61C29.86,85.6,29.26,85,29.26,84.25z"/><path class="st5" d="M54.03,15.71H43.52c-0.86,0-1.61-0.55-1.89-1.36l-0.74-2.2h15.76l-0.74,2.2      C55.65,15.16,54.89,15.71,54.03,15.71z"/></g><path class="st5" d="M72.98,38.29l-0.65,0.6V18.94l0.65,0.6c0.63,0.58,1.01,1.62,1.01,2.74v13.25     C73.99,36.67,73.6,37.71,72.98,38.29z"/></g><path class="st33" d="M65.08,67.25H36.42c-0.91,0-1.64,0.76-1.64,1.7v5.56c0,0.94,0.74,1.7,1.64,1.7h28.66V67.25z"/><path class="st5" d="M88.26,73.88H38.44c-0.94,0-1.7-0.76-1.7-1.7v-5.56c0-0.94,0.76-1.7,1.7-1.7h49.82c0.94,0,1.7,0.76,1.7,1.7    v5.56C89.96,73.12,89.2,73.88,88.26,73.88z"/><path class="st44" d="M90.3,73.88H40.48c-0.94,0-1.7-0.76-1.7-1.7v-5.56c0-0.94,0.76-1.7,1.7-1.7H90.3c0.94,0,1.7,0.76,1.7,1.7    v5.56C92,73.12,91.24,73.88,90.3,73.88z"/><g><circle class="st33" cx="46.14" cy="69.41" r="2.74"/><g><line class="st54" x1="51.36" y1="67.91" x2="87.38" y2="67.91"/><line class="st54" x1="51.36" y1="70.9" x2="78.21" y2="70.9"/></g></g></g><g><path class="st5" d="M37.48,22.8l0,15.86c0,1.58-1.28,2.86-2.86,2.86H17.37l-8.16,4.55c-0.82,0.46-1.74,0.71-2.68,0.73l-1.77,0.04    l4.7-5.32H7.73c-1.6,0-2.88-1.28-2.88-2.86V22.8c0-1.58,1.28-2.86,2.88-2.86h26.89C36.2,19.94,37.48,21.22,37.48,22.8z"/><path class="st32" d="M34.63,22.8l0,15.86c0,1.58-1.28,2.86-2.86,2.86H14.52l-9.41,5.25C4.58,47.07,4,46.49,4.28,45.96l2.34-4.44    H4.88c-1.6,0-2.88-1.28-2.88-2.86V22.8c0-1.58,1.28-2.86,2.88-2.86h26.89C33.35,19.94,34.63,21.22,34.63,22.8z"/><path class="st52" d="M34.63,38.67v-2.83c0,1.59-1.28,2.87-2.87,2.87H14.52l-9.09,5.06l-1.15,2.19c-0.29,0.53,0.31,1.1,0.82,0.8    l9.42-5.25h17.24C33.35,41.52,34.63,40.24,34.63,38.67z"/><path class="st11" d="M34.63,22.8l0,15.86c0,1.58-1.28,2.86-2.86,2.86H14.52l-9.41,5.25C4.58,47.07,4,46.49,4.28,45.96l2.34-4.44    H4.88c-1.6,0-2.88-1.28-2.88-2.86V22.8c0-1.58,1.28-2.86,2.88-2.86h26.89C33.35,19.94,34.63,21.22,34.63,22.8z"/><circle class="st25" cx="9.83" cy="30.27" r="2.85"/><circle class="st25" cx="18.32" cy="30.27" r="2.85"/><circle class="st25" cx="26.8" cy="30.27" r="2.85"/></g><g><path class="st5" d="M90.71,35.03l0,15.86c0,1.58-1.28,2.86-2.86,2.86H70.6l-8.16,4.55c-0.82,0.46-1.74,0.71-2.68,0.73L58,59.07    l4.7-5.32h-1.74c-1.6,0-2.88-1.28-2.88-2.86V35.03c0-1.58,1.28-2.86,2.88-2.86h26.89C89.43,32.17,90.71,33.45,90.71,35.03z"/><path class="st26" d="M87.86,35.03l0,15.86c0,1.58-1.28,2.86-2.86,2.86H67.75L58.34,59c-0.53,0.29-1.11-0.28-0.83-0.81l2.34-4.44    h-1.74c-1.6,0-2.88-1.28-2.88-2.86V35.03c0-1.58,1.28-2.86,2.88-2.86H85C86.58,32.17,87.86,33.45,87.86,35.03z"/><path class="st27" d="M87.86,50.89v-2.83c0,1.59-1.28,2.87-2.87,2.87H67.75L58.66,56l-1.15,2.19c-0.29,0.53,0.31,1.1,0.82,0.8    l9.42-5.25h17.24C86.58,53.75,87.86,52.47,87.86,50.89z"/><path class="st11" d="M87.86,35.03l0,15.86c0,1.58-1.28,2.86-2.86,2.86H67.75L58.34,59c-0.53,0.29-1.11-0.28-0.83-0.81l2.34-4.44    h-1.74c-1.6,0-2.88-1.28-2.88-2.86V35.03c0-1.58,1.28-2.86,2.88-2.86H85C86.58,32.17,87.86,33.45,87.86,35.03z"/><circle class="st25" cx="63.06" cy="42.5" r="2.85"/><circle class="st25" cx="71.55" cy="42.5" r="2.85"/><circle class="st25" cx="80.03" cy="42.5" r="2.85"/></g></g><g id="Layer_4"/></svg>